<svg width="362" height="414" viewBox="0 0 362 414" fill="none" xmlns="http://www.w3.org/2000/svg">
<path d="M51.7143 181.125C47.674 181.125 44.4419 180.316 42.0179 177.891C39.5938 175.465 38.7857 172.231 38.7857 168.188V90.5625C38.7857 87.3281 39.5938 84.0937 42.0179 81.6681C44.4419 79.2422 47.674 77.625 51.7143 77.625H62.2188C71.9153 54.9844 88.076 36.3868 109.893 21.8319C130.902 7.27743 155.143 0 181 0C206.857 0 230.291 7.27743 252.107 21.8319C273.117 36.3868 289.276 54.9844 299.781 77.625H310.286C313.518 77.625 316.75 79.2422 319.174 81.6681C321.597 84.0937 323.214 87.3281 323.214 90.5625V168.188C323.214 172.231 321.597 175.465 319.174 177.891C316.75 180.316 313.518 181.125 310.286 181.125H298.974C289.276 204.575 273.117 223.172 252.107 237.726C230.291 252.281 206.857 258.75 181 258.75C155.143 258.75 130.902 252.281 109.893 237.726C88.076 223.172 72.7232 204.575 63.0268 181.125H51.7143ZM84.0357 109.969V129.375C84.0357 151.207 91.3081 169.806 106.661 184.359C121.205 199.722 139.79 207 161.607 207H200.393C221.403 207 239.987 199.722 255.339 184.359C269.883 169.806 277.964 151.207 277.964 129.375V109.969C277.964 101.074 273.924 93.7969 266.653 87.3281C258.571 80.8594 249.683 77.625 239.179 77.625H122.821C111.509 77.625 102.62 80.8594 95.3482 87.3281C87.2679 93.7969 84.0357 101.074 84.0357 109.969ZM142.214 168.188L132.518 139.078L103.429 129.375L132.518 119.672L142.214 90.5625L151.911 119.672L181 129.375L151.911 139.078L142.214 168.188ZM265.036 259.559C292.51 262.793 315.133 274.922 333.719 295.137C352.304 316.16 362 339.609 362 367.101V375.188C362 386.507 357.959 395.403 350.688 402.681C342.607 410.766 333.719 414 323.214 414H258.571V362.25C258.571 355.781 255.339 349.312 250.49 344.462C245.643 339.609 239.179 336.375 232.714 336.375H129.286C122.013 336.375 115.549 339.609 110.701 344.462C105.853 349.312 103.429 355.781 103.429 362.25V414H38.7857C27.4732 414 18.5847 410.766 11.3125 402.681C3.23214 395.403 0 386.507 0 375.188V367.101C0 339.609 8.88839 316.16 27.4732 295.137C46.0581 274.922 69.4911 262.793 96.9643 259.559C122.821 276.538 150.295 284.625 181 284.625C210.898 284.625 239.179 276.538 265.036 259.559ZM219.786 362.25C223.018 362.25 226.25 363.868 228.674 366.293C231.097 368.719 232.714 371.953 232.714 375.188C232.714 379.231 231.097 382.465 228.674 384.891C226.25 387.316 223.018 388.125 219.786 388.125C215.745 388.125 212.513 387.316 210.089 384.891C207.666 382.465 206.857 379.231 206.857 375.188C206.857 371.953 207.666 368.719 210.089 366.293C212.513 363.868 215.745 362.25 219.786 362.25ZM142.214 362.25C145.446 362.25 148.679 363.868 151.103 366.293C153.527 368.719 155.143 371.953 155.143 375.188V414H129.286V375.188C129.286 371.953 130.094 368.719 132.518 366.293C134.942 363.868 138.174 362.25 142.214 362.25Z" fill="#0F9B8E"/>
</svg>
